<svg id="kity_svg_6" xmlns="http://www.w3.org/2000/svg" xmlns:xlink="http://www.w3.org/1999/xlink" version="1.1" width="1381" height="1589" style="background: rgb(251, 251, 251); visibility: visible;" viewBox="0 0 1381 1589"><defs id="kity_defs_7"><linearGradient id="kity_linearGradient_17" x1="0" y1="0" x2="0" y2="1"><stop id="kity_stop_18" offset="0" stop-color="rgb(255, 255, 255)"></stop><stop id="kity_stop_19" offset="1" stop-color="rgb(204, 204, 204)"></stop></linearGradient><marker id="kity_marker_2" orient="auto" refX="6" refY="0" viewBox="-7 -7 14 14" markerWidth="7" markerHeight="7" markerUnits="userSpaceOnUse"><path id="kity_path_3" fill="rgb(115, 161, 191)" stroke="none" d="M6,0A6,6,0,1,1,-6,0A6,6,0,1,1,6,0"></path></marker></defs><g id="kity_g_8"><g id="minder1" text-rendering="optimize-speed"><g id="minder_connect_group1"><path id="kity_path_31" fill="none" stroke="rgb(115, 161, 191)" stroke-width="1" d="M85,518.5A182.5,485,0,0,1,267.5,33.5"></path><path id="kity_path_33" fill="none" stroke="rgb(115, 161, 191)" stroke-width="1" d="M85,518.5A182.5,485,0,0,0,267.5,1003.5"></path><path id="kity_path_35" fill="none" stroke="rgb(115, 161, 191)" stroke-width="1" d="M351.5,1003.5C371.5,1003.5,371.5,449.5,391.5,449.5"></path><path id="kity_path_37" fill="none" stroke="rgb(115, 161, 191)" stroke-width="1" d="M459.5,449.5C479.5,449.5,479.5,176.5,499.5,176.5"></path><path id="kity_path_39" fill="none" stroke="rgb(115, 161, 191)" stroke-width="1" d="M566.5,176.5C586.5,176.5,586.5,98.5,606.5,98.5"></path><path id="kity_path_41" fill="none" stroke="rgb(115, 161, 191)" stroke-width="1" d="M566.5,176.5C586.5,176.5,586.5,150.5,606.5,150.5"></path><path id="kity_path_43" fill="none" stroke="rgb(115, 161, 191)" stroke-width="1" d="M566.5,176.5C586.5,176.5,586.5,202.5,606.5,202.5"></path><path id="kity_path_45" fill="none" stroke="rgb(115, 161, 191)" stroke-width="1" d="M566.5,176.5C586.5,176.5,586.5,254.5,606.5,254.5"></path><path id="kity_path_47" fill="none" stroke="rgb(115, 161, 191)" stroke-width="1" d="M459.5,449.5C479.5,449.5,479.5,358.5,499.5,358.5"></path><path id="kity_path_49" fill="none" stroke="rgb(115, 161, 191)" stroke-width="1" d="M550.5,358.5C570.5,358.5,570.5,306.5,590.5,306.5"></path><path id="kity_path_51" fill="none" stroke="rgb(115, 161, 191)" stroke-width="1" d="M550.5,358.5C570.5,358.5,570.5,358.5,590.5,358.5"></path><path id="kity_path_53" fill="none" stroke="rgb(115, 161, 191)" stroke-width="1" d="M550.5,358.5C570.5,358.5,570.5,410.5,590.5,410.5"></path><path id="kity_path_55" fill="none" stroke="rgb(115, 161, 191)" stroke-width="1" d="M459.5,449.5C479.5,449.5,479.5,462.5,499.5,462.5"></path><path id="kity_path_57" fill="none" stroke="rgb(115, 161, 191)" stroke-width="1" d="M459.5,449.5C479.5,449.5,479.5,514.5,499.5,514.5"></path><path id="kity_path_59" fill="none" stroke="rgb(115, 161, 191)" stroke-width="1" d="M459.5,449.5C479.5,449.5,479.5,566.5,499.5,566.5"></path><path id="kity_path_61" fill="none" stroke="rgb(115, 161, 191)" stroke-width="1" d="M459.5,449.5C479.5,449.5,479.5,618.5,499.5,618.5"></path><path id="kity_path_63" fill="none" stroke="rgb(115, 161, 191)" stroke-width="1" d="M459.5,449.5C479.5,449.5,479.5,670.5,499.5,670.5"></path><path id="kity_path_65" fill="none" stroke="rgb(115, 161, 191)" stroke-width="1" d="M459.5,449.5C479.5,449.5,479.5,722.5,499.5,722.5"></path><path id="kity_path_67" fill="none" stroke="rgb(115, 161, 191)" stroke-width="1" d="M351.5,1003.5C371.5,1003.5,371.5,774.5,391.5,774.5"></path><path id="kity_path_69" fill="none" stroke="rgb(115, 161, 191)" stroke-width="1" d="M351.5,1003.5C371.5,1003.5,371.5,826.5,391.5,826.5"></path><path id="kity_path_71" fill="none" stroke="rgb(115, 161, 191)" stroke-width="1" d="M488.5,826.5C508.5,826.5,508.5,826.5,528.5,826.5"></path><path id="kity_path_73" fill="none" stroke="rgb(115, 161, 191)" stroke-width="1" d="M572.5,826.5C592.5,826.5,592.5,826.5,612.5,826.5"></path><path id="kity_path_75" fill="none" stroke="rgb(115, 161, 191)" stroke-width="1" d="M351.5,1003.5C371.5,1003.5,371.5,878.5,391.5,878.5"></path><path id="kity_path_77" fill="none" stroke="rgb(115, 161, 191)" stroke-width="1" d="M351.5,1003.5C371.5,1003.5,371.5,1009.5,391.5,1009.5"></path><path id="kity_path_79" fill="none" stroke="rgb(115, 161, 191)" stroke-width="1" d="M459.5,1009.5C479.5,1009.5,479.5,948.5,499.5,948.5"></path><path id="kity_path_81" fill="none" stroke="rgb(115, 161, 191)" stroke-width="1" d="M459.5,1009.5C479.5,1009.5,479.5,1027.5,499.5,1027.5"></path><path id="kity_path_83" fill="none" stroke="rgb(115, 161, 191)" stroke-width="1" d="M459.5,1009.5C479.5,1009.5,479.5,1088.5,499.5,1088.5"></path><path id="kity_path_85" fill="none" stroke="rgb(115, 161, 191)" stroke-width="1" d="M351.5,1003.5C371.5,1003.5,371.5,1218.5,391.5,1218.5"></path><path id="kity_path_87" fill="none" stroke="rgb(115, 161, 191)" stroke-width="1" d="M459.5,1218.5C479.5,1218.5,479.5,1140.5,499.5,1140.5"></path><path id="kity_path_89" fill="none" stroke="rgb(115, 161, 191)" stroke-width="1" d="M543.5,1140.5C563.5,1140.5,563.5,1140.5,583.5,1140.5"></path><path id="kity_path_91" fill="none" stroke="rgb(115, 161, 191)" stroke-width="1" d="M459.5,1218.5C479.5,1218.5,479.5,1297.5,499.5,1297.5"></path><path id="kity_path_93" fill="none" stroke="rgb(115, 161, 191)" stroke-width="1" d="M537.5,1297.5C557.5,1297.5,557.5,1192.5,577.5,1192.5"></path><path id="kity_path_95" fill="none" stroke="rgb(115, 161, 191)" stroke-width="1" d="M537.5,1297.5C557.5,1297.5,557.5,1297.5,577.5,1297.5"></path><path id="kity_path_97" fill="none" stroke="rgb(115, 161, 191)" stroke-width="1" d="M828.5,1297.5C848.5,1297.5,848.5,1271.5,868.5,1271.5"></path><path id="kity_path_99" fill="none" stroke="rgb(115, 161, 191)" stroke-width="1" d="M828.5,1297.5C848.5,1297.5,848.5,1350.5,868.5,1350.5"></path><path id="kity_path_101" fill="none" stroke="rgb(115, 161, 191)" stroke-width="1" d="M537.5,1297.5C557.5,1297.5,557.5,1402.5,577.5,1402.5"></path><path id="kity_path_103" fill="none" stroke="rgb(115, 161, 191)" stroke-width="1" d="M351.5,1003.5C371.5,1003.5,371.5,1454.5,391.5,1454.5"></path><path id="kity_path_105" fill="none" stroke="rgb(115, 161, 191)" stroke-width="1" d="M351.5,1003.5C371.5,1003.5,371.5,1506.5,391.5,1506.5"></path><path id="kity_path_107" fill="none" stroke="rgb(115, 161, 191)" stroke-width="1" d="M351.5,1003.5C371.5,1003.5,371.5,1558.5,391.5,1558.5"></path></g><g id="minder_node1"><path id="node_outline1" fill="rgb(115, 161, 191)" stroke="rgb(57, 80, 96)" d="M25.5,498.5h119a5,5,0,0,1,5,5v30a5,5,0,0,1,-5,5h-119a5,5,0,0,1,-5,-5v-30a5,5,0,0,1,5,-5z" stroke-width="3"></path><g id="node_text1" fill="white"><text id="kity_text_22" text-rendering="inherit" font-size="16" dy=".8em" y="510.5" x="44.5">JavaScript</text></g></g><g id="kity_g_12"><path id="kity_path_13" fill="none" stroke="none" d="M44.5,518.5h0v0h0z"></path></g><g id="kity_g_14"><path id="kity_path_15" fill="none" stroke="none" d="M44.5,518.5h0v0h0z"></path><path id="kity_path_16" fill="none" stroke="none"></path></g><g id="minder_node2"><g id="node_expander1" display="none" style="cursor: pointer;"><path id="kity_path_232" fill="white" stroke="gray" d="M268.5,33.5A6,6,0,1,1,256.5,33.5A6,6,0,1,1,268.5,33.5"></path><path id="kity_path_233" fill="none" stroke="gray"></path></g><path id="node_outline2" fill="rgb(238, 243, 246)" stroke="rgb(115, 161, 191)" d="M272.5,20.5h62a3,3,0,0,1,3,3v20a3,3,0,0,1,-3,3h-62a3,3,0,0,1,-3,-3v-20a3,3,0,0,1,3,-3z" stroke-width="1"></path><g id="node_text2" fill="black"><text id="kity_text_109" text-rendering="inherit" font-size="14" dy=".8em" y="26.5" x="289.5">语法</text></g></g><g id="minder_node3"><g id="node_expander39" style="cursor: pointer;"><path id="kity_path_346" fill="white" stroke="gray" d="M268.5,1003.5A6,6,0,1,1,256.5,1003.5A6,6,0,1,1,268.5,1003.5"></path><path id="kity_path_347" fill="none" stroke="gray" d="M258,1003.5L267,1003.5"></path></g><path id="node_outline40" fill="rgb(238, 243, 246)" stroke="rgb(115, 161, 191)" d="M272.5,990.5h76a3,3,0,0,1,3,3v20a3,3,0,0,1,-3,3h-76a3,3,0,0,1,-3,-3v-20a3,3,0,0,1,3,-3z" stroke-width="1"></path><g id="node_text40" fill="black"><text id="kity_text_191" text-rendering="inherit" font-size="14" dy=".8em" y="996.5" x="289.5">运行时</text></g></g><g id="minder_node4"><g id="node_expander17" style="cursor: pointer;"><path id="kity_path_280" fill="white" stroke="gray" d="M391.5,449.5A6,6,0,1,1,379.5,449.5A6,6,0,1,1,391.5,449.5"></path><path id="kity_path_281" fill="none" stroke="gray" d="M381,449.5L390,449.5"></path></g><path id="node_outline18" fill="none" stroke="none" d="M396.5,438.5h58a5,5,0,0,1,5,5v12a5,5,0,0,1,-5,5h-58a5,5,0,0,1,-5,-5v-12a5,5,0,0,1,5,-5z"></path><g id="node_text18" fill="black"><text id="kity_text_141" text-rendering="inherit" font-size="12" dy=".8em" y="443.5" x="401.5">数据类型</text></g></g><g id="minder_node5"><g id="node_expander6" style="cursor: pointer;"><path id="kity_path_247" fill="white" stroke="gray" d="M499.5,176.5A6,6,0,1,1,487.5,176.5A6,6,0,1,1,499.5,176.5"></path><path id="kity_path_248" fill="none" stroke="gray" d="M489,176.5L498,176.5"></path></g><path id="node_outline7" fill="none" stroke="none" d="M504.5,165.5h57a5,5,0,0,1,5,5v12a5,5,0,0,1,-5,5h-57a5,5,0,0,1,-5,-5v-12a5,5,0,0,1,5,-5z"></path><g id="node_text7" fill="black"><text id="kity_text_119" text-rendering="inherit" font-size="12" dy=".8em" y="170.5" x="509.5">Number</text></g></g><g id="minder_node6"><g id="node_expander2" display="none" style="cursor: pointer;"><path id="kity_path_235" fill="white" stroke="gray" d="M606.5,98.5A6,6,0,1,1,594.5,98.5A6,6,0,1,1,606.5,98.5"></path><path id="kity_path_236" fill="none" stroke="gray"></path></g><path id="node_outline3" fill="none" stroke="none" d="M611.5,87.5h268a5,5,0,0,1,5,5v12a5,5,0,0,1,-5,5h-268a5,5,0,0,1,-5,-5v-12a5,5,0,0,1,5,-5z"></path><g id="node_text3" fill="black"><text id="kity_text_111" text-rendering="inherit" font-size="12" dy=".8em" y="92.5" x="616.5">18437736874454810627(即 2^64-2^53+3) 个值</text></g></g><g id="minder_node7"><g id="node_expander3" display="none" style="cursor: pointer;"><path id="kity_path_238" fill="white" stroke="gray" d="M606.5,150.5A6,6,0,1,1,594.5,150.5A6,6,0,1,1,606.5,150.5"></path><path id="kity_path_239" fill="none" stroke="gray"></path></g><path id="node_outline4" fill="none" stroke="none" d="M611.5,139.5h360a5,5,0,0,1,5,5v12a5,5,0,0,1,-5,5h-360a5,5,0,0,1,-5,-5v-12a5,5,0,0,1,5,-5z"></path><g id="node_text4" fill="black"><text id="kity_text_113" text-rendering="inherit" font-size="12" dy=".8em" y="144.5" x="616.5">NaN,&#xa0;占用了 9007199254740990，这原本是符合 IEEE 规则的数字</text></g></g><g id="minder_node8"><g id="node_expander4" display="none" style="cursor: pointer;"><path id="kity_path_241" fill="white" stroke="gray" d="M606.5,202.5A6,6,0,1,1,594.5,202.5A6,6,0,1,1,606.5,202.5"></path><path id="kity_path_242" fill="none" stroke="gray"></path></g><path id="node_outline5" fill="none" stroke="none" d="M611.5,191.5h210a5,5,0,0,1,5,5v12a5,5,0,0,1,-5,5h-210a5,5,0,0,1,-5,-5v-12a5,5,0,0,1,5,-5z"></path><g id="node_text5" fill="black"><text id="kity_text_115" text-rendering="inherit" font-size="12" dy=".8em" y="196.5" x="616.5">Infinity，无穷大； -Infinity，负无穷大</text></g></g><g id="minder_node9"><g id="node_expander5" display="none" style="cursor: pointer;"><path id="kity_path_244" fill="white" stroke="gray" d="M606.5,254.5A6,6,0,1,1,594.5,254.5A6,6,0,1,1,606.5,254.5"></path><path id="kity_path_245" fill="none" stroke="gray"></path></g><path id="node_outline6" fill="none" stroke="none" d="M611.5,243.5h120a5,5,0,0,1,5,5v12a5,5,0,0,1,-5,5h-120a5,5,0,0,1,-5,-5v-12a5,5,0,0,1,5,-5z"></path><g id="node_text6" fill="black"><text id="kity_text_117" text-rendering="inherit" font-size="12" dy=".8em" y="248.5" x="616.5">EPSILON 最小精度值</text></g></g><g id="minder_node10"><g id="node_expander10" style="cursor: pointer;"><path id="kity_path_259" fill="white" stroke="gray" d="M499.5,358.5A6,6,0,1,1,487.5,358.5A6,6,0,1,1,499.5,358.5"></path><path id="kity_path_260" fill="none" stroke="gray" d="M489,358.5L498,358.5"></path></g><path id="node_outline11" fill="none" stroke="none" d="M504.5,347.5h41a5,5,0,0,1,5,5v12a5,5,0,0,1,-5,5h-41a5,5,0,0,1,-5,-5v-12a5,5,0,0,1,5,-5z"></path><g id="node_text11" fill="black"><text id="kity_text_127" text-rendering="inherit" font-size="12" dy=".8em" y="352.5" x="509.5">String</text></g></g><g id="minder_node11"><g id="node_expander7" display="none" style="cursor: pointer;"><path id="kity_path_250" fill="white" stroke="gray" d="M590.5,306.5A6,6,0,1,1,578.5,306.5A6,6,0,1,1,590.5,306.5"></path><path id="kity_path_251" fill="none" stroke="gray"></path></g><path id="node_outline8" fill="none" stroke="none" d="M595.5,295.5h164a5,5,0,0,1,5,5v12a5,5,0,0,1,-5,5h-164a5,5,0,0,1,-5,-5v-12a5,5,0,0,1,5,-5z"></path><g id="node_text8" fill="black"><text id="kity_text_121" text-rendering="inherit" font-size="12" dy=".8em" y="300.5" x="600.5">String 有最大长度是 2^53 - 1</text></g></g><g id="minder_node12"><g id="node_expander8" display="none" style="cursor: pointer;"><path id="kity_path_253" fill="white" stroke="gray" d="M590.5,358.5A6,6,0,1,1,578.5,358.5A6,6,0,1,1,590.5,358.5"></path><path id="kity_path_254" fill="none" stroke="gray"></path></g><path id="node_outline9" fill="none" stroke="none" d="M595.5,347.5h94a5,5,0,0,1,5,5v12a5,5,0,0,1,-5,5h-94a5,5,0,0,1,-5,-5v-12a5,5,0,0,1,5,-5z"></path><g id="node_text9" fill="black"><text id="kity_text_123" text-rendering="inherit" font-size="12" dy=".8em" y="352.5" x="600.5">创建后无法修改</text></g></g><g id="minder_node13"><g id="node_expander9" display="none" style="cursor: pointer;"><path id="kity_path_256" fill="white" stroke="gray" d="M590.5,410.5A6,6,0,1,1,578.5,410.5A6,6,0,1,1,590.5,410.5"></path><path id="kity_path_257" fill="none" stroke="gray"></path></g><path id="node_outline10" fill="none" stroke="none" d="M595.5,399.5h623a5,5,0,0,1,5,5v12a5,5,0,0,1,-5,5h-623a5,5,0,0,1,-5,-5v-12a5,5,0,0,1,5,-5z"></path><g id="node_text10" fill="black"><text id="kity_text_125" text-rendering="inherit" font-size="12" dy=".8em" y="404.5" x="600.5">每个 UTF16 单元当作一个字符来处理,&#xa0;所以处理非 BMP（超出 U+0000 - U+FFFF 范围）的字符时，你应该格外小心。</text></g></g><g id="minder_node14"><g id="node_expander11" display="none" style="cursor: pointer;"><path id="kity_path_262" fill="white" stroke="gray" d="M499.5,462.5A6,6,0,1,1,487.5,462.5A6,6,0,1,1,499.5,462.5"></path><path id="kity_path_263" fill="none" stroke="gray"></path></g><path id="node_outline12" fill="none" stroke="none" d="M504.5,451.5h58a5,5,0,0,1,5,5v12a5,5,0,0,1,-5,5h-58a5,5,0,0,1,-5,-5v-12a5,5,0,0,1,5,-5z"></path><g id="node_text12" fill="black"><text id="kity_text_129" text-rendering="inherit" font-size="12" dy=".8em" y="456.5" x="509.5">Boolean</text></g></g><g id="minder_node15"><g id="node_expander12" display="none" style="cursor: pointer;"><path id="kity_path_265" fill="white" stroke="gray" d="M499.5,514.5A6,6,0,1,1,487.5,514.5A6,6,0,1,1,499.5,514.5"></path><path id="kity_path_266" fill="none" stroke="gray"></path></g><path id="node_outline13" fill="none" stroke="none" d="M504.5,503.5h62a5,5,0,0,1,5,5v12a5,5,0,0,1,-5,5h-62a5,5,0,0,1,-5,-5v-12a5,5,0,0,1,5,-5z"></path><g id="node_text13" fill="black"><text id="kity_text_131" text-rendering="inherit" font-size="12" dy=".8em" y="508.5" x="509.5">undefind</text></g></g><g id="minder_node16"><g id="node_expander13" display="none" style="cursor: pointer;"><path id="kity_path_268" fill="white" stroke="gray" d="M499.5,566.5A6,6,0,1,1,487.5,566.5A6,6,0,1,1,499.5,566.5"></path><path id="kity_path_269" fill="none" stroke="gray"></path></g><path id="node_outline14" fill="none" stroke="none" d="M504.5,555.5h31a5,5,0,0,1,5,5v12a5,5,0,0,1,-5,5h-31a5,5,0,0,1,-5,-5v-12a5,5,0,0,1,5,-5z"></path><g id="node_text14" fill="black"><text id="kity_text_133" text-rendering="inherit" font-size="12" dy=".8em" y="560.5" x="509.5">Null</text></g></g><g id="minder_node17"><g id="node_expander14" display="none" style="cursor: pointer;"><path id="kity_path_271" fill="white" stroke="gray" d="M499.5,618.5A6,6,0,1,1,487.5,618.5A6,6,0,1,1,499.5,618.5"></path><path id="kity_path_272" fill="none" stroke="gray"></path></g><path id="node_outline15" fill="none" stroke="none" d="M504.5,607.5h51a5,5,0,0,1,5,5v12a5,5,0,0,1,-5,5h-51a5,5,0,0,1,-5,-5v-12a5,5,0,0,1,5,-5z"></path><g id="node_text15" fill="black"><text id="kity_text_135" text-rendering="inherit" font-size="12" dy=".8em" y="612.5" x="509.5">Object</text></g></g><g id="minder_node18"><g id="node_expander15" display="none" style="cursor: pointer;"><path id="kity_path_274" fill="white" stroke="gray" d="M499.5,670.5A6,6,0,1,1,487.5,670.5A6,6,0,1,1,499.5,670.5"></path><path id="kity_path_275" fill="none" stroke="gray"></path></g><path id="node_outline16" fill="none" stroke="none" d="M504.5,659.5h46a5,5,0,0,1,5,5v12a5,5,0,0,1,-5,5h-46a5,5,0,0,1,-5,-5v-12a5,5,0,0,1,5,-5z"></path><g id="node_text16" fill="black"><text id="kity_text_137" text-rendering="inherit" font-size="12" dy=".8em" y="664.5" x="509.5">Sysbol</text></g></g><g id="minder_node19"><g id="node_expander16" display="none" style="cursor: pointer;"><path id="kity_path_277" fill="white" stroke="gray" d="M499.5,722.5A6,6,0,1,1,487.5,722.5A6,6,0,1,1,499.5,722.5"></path><path id="kity_path_278" fill="none" stroke="gray"></path></g><path id="node_outline17" fill="none" stroke="none" d="M504.5,711.5h56a5,5,0,0,1,5,5v12a5,5,0,0,1,-5,5h-56a5,5,0,0,1,-5,-5v-12a5,5,0,0,1,5,-5z"></path><g id="node_text17" fill="black"><text id="kity_text_139" text-rendering="inherit" font-size="12" dy=".8em" y="716.5" x="509.5">Array ??</text></g></g><g id="minder_node20"><g id="node_expander18" display="none" style="cursor: pointer;"><path id="kity_path_283" fill="white" stroke="gray" d="M391.5,774.5A6,6,0,1,1,379.5,774.5A6,6,0,1,1,391.5,774.5"></path><path id="kity_path_284" fill="none" stroke="gray"></path></g><path id="node_outline19" fill="none" stroke="none" d="M396.5,763.5h60a5,5,0,0,1,5,5v12a5,5,0,0,1,-5,5h-60a5,5,0,0,1,-5,-5v-12a5,5,0,0,1,5,-5z"></path><g id="node_text19" fill="black"><text id="kity_text_143" text-rendering="inherit" font-size="12" dy=".8em" y="768.5" x="401.5">Function</text></g></g><g id="minder_node21"><g id="node_expander21" style="cursor: pointer;"><path id="kity_path_292" fill="white" stroke="gray" d="M391.5,826.5A6,6,0,1,1,379.5,826.5A6,6,0,1,1,391.5,826.5"></path><path id="kity_path_293" fill="none" stroke="gray" d="M381,826.5L390,826.5"></path></g><path id="node_outline22" fill="none" stroke="none" d="M396.5,815.5h87a5,5,0,0,1,5,5v12a5,5,0,0,1,-5,5h-87a5,5,0,0,1,-5,-5v-12a5,5,0,0,1,5,-5z"></path><g id="node_text22" fill="black"><text id="kity_text_149" text-rendering="inherit" font-size="12" dy=".8em" y="820.5" x="401.5">装箱/拆箱操作</text></g></g><g id="minder_node22"><g id="node_expander20" style="cursor: pointer;"><path id="kity_path_289" fill="white" stroke="gray" d="M528.5,826.5A6,6,0,1,1,516.5,826.5A6,6,0,1,1,528.5,826.5"></path><path id="kity_path_290" fill="none" stroke="gray" d="M518,826.5L527,826.5"></path></g><path id="node_outline21" fill="none" stroke="none" d="M533.5,815.5h34a5,5,0,0,1,5,5v12a5,5,0,0,1,-5,5h-34a5,5,0,0,1,-5,-5v-12a5,5,0,0,1,5,-5z"></path><g id="node_text21" fill="black"><text id="kity_text_147" text-rendering="inherit" font-size="12" dy=".8em" y="820.5" x="538.5">拆箱</text></g></g><g id="minder_node23"><g id="node_expander19" display="none" style="cursor: pointer;"><path id="kity_path_286" fill="white" stroke="gray" d="M612.5,826.5A6,6,0,1,1,600.5,826.5A6,6,0,1,1,612.5,826.5"></path><path id="kity_path_287" fill="none" stroke="gray"></path></g><path id="node_outline20" fill="none" stroke="none" d="M617.5,815.5h652a5,5,0,0,1,5,5v12a5,5,0,0,1,-5,5h-652a5,5,0,0,1,-5,-5v-12a5,5,0,0,1,5,-5z"></path><g id="node_text20" fill="black"><text id="kity_text_145" text-rendering="inherit" font-size="12" dy=".8em" y="820.5" x="622.5">如果preferredType的值是"string"，那就先执行"toString", 后执行"valueOf"。否则，先执行"valueOf", 后执行"toString"。</text></g></g><g id="minder_node24"><g id="node_expander22" display="none" style="cursor: pointer;"><path id="kity_path_295" fill="white" stroke="gray" d="M391.5,878.5A6,6,0,1,1,379.5,878.5A6,6,0,1,1,391.5,878.5"></path><path id="kity_path_296" fill="none" stroke="gray"></path></g><path id="node_outline23" fill="none" stroke="none" d="M396.5,867.5h58a5,5,0,0,1,5,5v12a5,5,0,0,1,-5,5h-58a5,5,0,0,1,-5,-5v-12a5,5,0,0,1,5,-5z"></path><g id="node_text23" fill="black"><text id="kity_text_151" text-rendering="inherit" font-size="12" dy=".8em" y="872.5" x="401.5">类型转换</text></g></g><g id="minder_node25"><g id="node_expander26" style="cursor: pointer;"><path id="kity_path_307" fill="white" stroke="gray" d="M391.5,1009.5A6,6,0,1,1,379.5,1009.5A6,6,0,1,1,391.5,1009.5"></path><path id="kity_path_308" fill="none" stroke="gray" d="M381,1009.5L390,1009.5"></path></g><path id="node_outline27" fill="none" stroke="none" d="M396.5,998.5h58a5,5,0,0,1,5,5v12a5,5,0,0,1,-5,5h-58a5,5,0,0,1,-5,-5v-12a5,5,0,0,1,5,-5z"></path><g id="node_text27" fill="black"><text id="kity_text_162" text-rendering="inherit" font-size="12" dy=".8em" y="1003.5" x="401.5">事件循环</text></g></g><g id="minder_node26"><g id="node_expander23" display="none" style="cursor: pointer;"><path id="kity_path_298" fill="white" stroke="gray" d="M499.5,948.5A6,6,0,1,1,487.5,948.5A6,6,0,1,1,499.5,948.5"></path><path id="kity_path_299" fill="none" stroke="gray"></path></g><path id="node_outline24" fill="none" stroke="none" d="M504.5,919.5h146a5,5,0,0,1,5,5v48a5,5,0,0,1,-5,5h-146a5,5,0,0,1,-5,-5v-48a5,5,0,0,1,5,-5z"></path><g id="node_text24" fill="black"><text id="kity_text_153" text-rendering="inherit" font-size="12" dy=".8em" y="924.5" x="509.5">宏任务</text><text id="kity_text_154" text-rendering="inherit" font-size="12" dy=".8em" y="942.5" x="509.5">1.循序执行的代码</text><text id="kity_text_155" text-rendering="inherit" font-size="12" dy=".8em" y="960.5" x="509.5">2. 外部API setTimeOut等</text></g></g><g id="minder_node27"><g id="node_expander24" display="none" style="cursor: pointer;"><path id="kity_path_301" fill="white" stroke="gray" d="M499.5,1027.5A6,6,0,1,1,487.5,1027.5A6,6,0,1,1,499.5,1027.5"></path><path id="kity_path_302" fill="none" stroke="gray"></path></g><path id="node_outline25" fill="none" stroke="none" d="M504.5,1007.5h213a5,5,0,0,1,5,5v30a5,5,0,0,1,-5,5h-213a5,5,0,0,1,-5,-5v-30a5,5,0,0,1,5,-5z"></path><g id="node_text25" fill="black"><text id="kity_text_157" text-rendering="inherit" font-size="12" dy=".8em" y="1012.5" x="509.5">微任务</text><text id="kity_text_158" text-rendering="inherit" font-size="12" dy=".8em" y="1030.5" x="509.5">由js引擎自己产生的异步任务, promise</text></g></g><g id="minder_node28"><g id="node_expander25" display="none" style="cursor: pointer;"><path id="kity_path_304" fill="white" stroke="gray" d="M499.5,1088.5A6,6,0,1,1,487.5,1088.5A6,6,0,1,1,499.5,1088.5"></path><path id="kity_path_305" fill="none" stroke="gray"></path></g><path id="node_outline26" fill="none" stroke="none" d="M504.5,1077.5h214a5,5,0,0,1,5,5v12a5,5,0,0,1,-5,5h-214a5,5,0,0,1,-5,-5v-12a5,5,0,0,1,5,-5z"></path><g id="node_text26" fill="black"><text id="kity_text_160" text-rendering="inherit" font-size="12" dy=".8em" y="1082.5" x="509.5">每次执行宏任务前都会清空微任务队列</text></g></g><g id="minder_node29"><g id="node_expander35" style="cursor: pointer;"><path id="kity_path_334" fill="white" stroke="gray" d="M391.5,1218.5A6,6,0,1,1,379.5,1218.5A6,6,0,1,1,391.5,1218.5"></path><path id="kity_path_335" fill="none" stroke="gray" d="M381,1218.5L390,1218.5"></path></g><path id="node_outline36" fill="none" stroke="none" d="M396.5,1207.5h58a5,5,0,0,1,5,5v12a5,5,0,0,1,-5,5h-58a5,5,0,0,1,-5,-5v-12a5,5,0,0,1,5,-5z"></path><g id="node_text36" fill="black"><text id="kity_text_183" text-rendering="inherit" font-size="12" dy=".8em" y="1212.5" x="401.5">函数执行</text></g></g><g id="minder_node30"><g id="node_expander28" style="cursor: pointer;"><path id="kity_path_313" fill="white" stroke="gray" d="M499.5,1140.5A6,6,0,1,1,487.5,1140.5A6,6,0,1,1,499.5,1140.5"></path><path id="kity_path_314" fill="none" stroke="gray" d="M489,1140.5L498,1140.5"></path></g><path id="node_outline29" fill="none" stroke="none" d="M504.5,1129.5h34a5,5,0,0,1,5,5v12a5,5,0,0,1,-5,5h-34a5,5,0,0,1,-5,-5v-12a5,5,0,0,1,5,-5z"></path><g id="node_text29" fill="black"><text id="kity_text_166" text-rendering="inherit" font-size="12" dy=".8em" y="1134.5" x="509.5">闭包</text></g></g><g id="minder_node31"><g id="node_expander27" display="none" style="cursor: pointer;"><path id="kity_path_310" fill="white" stroke="gray" d="M583.5,1140.5A6,6,0,1,1,571.5,1140.5A6,6,0,1,1,583.5,1140.5"></path><path id="kity_path_311" fill="none" stroke="gray"></path></g><path id="node_outline28" fill="none" stroke="none" d="M588.5,1129.5h226a5,5,0,0,1,5,5v12a5,5,0,0,1,-5,5h-226a5,5,0,0,1,-5,-5v-12a5,5,0,0,1,5,-5z"></path><g id="node_text28" fill="black"><text id="kity_text_164" text-rendering="inherit" font-size="12" dy=".8em" y="1134.5" x="593.5">闭包其实只是一个绑定了执行环境的函数</text></g></g><g id="minder_node32"><g id="node_expander34" style="cursor: pointer;"><path id="kity_path_331" fill="white" stroke="gray" d="M499.5,1297.5A6,6,0,1,1,487.5,1297.5A6,6,0,1,1,499.5,1297.5"></path><path id="kity_path_332" fill="none" stroke="gray" d="M489,1297.5L498,1297.5"></path></g><path id="node_outline35" fill="none" stroke="none" d="M504.5,1286.5h28a5,5,0,0,1,5,5v12a5,5,0,0,1,-5,5h-28a5,5,0,0,1,-5,-5v-12a5,5,0,0,1,5,-5z"></path><g id="node_text35" fill="black"><text id="kity_text_181" text-rendering="inherit" font-size="12" dy=".8em" y="1291.5" x="509.5">this</text></g></g><g id="minder_node33"><g id="node_expander29" display="none" style="cursor: pointer;"><path id="kity_path_316" fill="white" stroke="gray" d="M577.5,1192.5A6,6,0,1,1,565.5,1192.5A6,6,0,1,1,577.5,1192.5"></path><path id="kity_path_317" fill="none" stroke="gray"></path></g><path id="node_outline30" fill="none" stroke="none" d="M582.5,1181.5h310a5,5,0,0,1,5,5v12a5,5,0,0,1,-5,5h-310a5,5,0,0,1,-5,-5v-12a5,5,0,0,1,5,-5z"></path><g id="node_text30" fill="black"><text id="kity_text_168" text-rendering="inherit" font-size="12" dy=".8em" y="1186.5" x="587.5">调用函数时使用的引用，决定了函数执行时刻的 this 值。</text></g></g><g id="minder_node34"><g id="node_expander32" style="cursor: pointer;"><path id="kity_path_325" fill="white" stroke="gray" d="M577.5,1297.5A6,6,0,1,1,565.5,1297.5A6,6,0,1,1,577.5,1297.5"></path><path id="kity_path_326" fill="none" stroke="gray" d="M567,1297.5L576,1297.5"></path></g><path id="node_outline33" fill="none" stroke="none" d="M582.5,1286.5h241a5,5,0,0,1,5,5v12a5,5,0,0,1,-5,5h-241a5,5,0,0,1,-5,-5v-12a5,5,0,0,1,5,-5z"></path><g id="node_text33" fill="black"><text id="kity_text_177" text-rendering="inherit" font-size="12" dy=".8em" y="1291.5" x="587.5">js 具有 [[thisMode]] 私有属性, 记录this的值</text></g></g><g id="minder_node35"><g id="node_expander30" display="none" style="cursor: pointer;"><path id="kity_path_319" fill="white" stroke="gray" d="M868.5,1271.5A6,6,0,1,1,856.5,1271.5A6,6,0,1,1,868.5,1271.5"></path><path id="kity_path_320" fill="none" stroke="gray"></path></g><path id="node_outline31" fill="none" stroke="none" d="M873.5,1233.5h483a5,5,0,0,1,5,5v66a5,5,0,0,1,-5,5h-483a5,5,0,0,1,-5,-5v-66a5,5,0,0,1,5,-5z"></path><g id="node_text31" fill="black"><text id="kity_text_170" text-rendering="inherit" font-size="12" dy=".8em" y="1238.5" x="878.5">[[thisMode]] 私有属性有三个取值。</text><text id="kity_text_171" text-rendering="inherit" font-size="12" dy=".8em" y="1256.5" x="878.5">lexical：表示从上下文中找 this，这对应了箭头函数。</text><text id="kity_text_172" text-rendering="inherit" font-size="12" dy=".8em" y="1274.5" x="878.5">global：表示当 this 为 undefined 时，取全局对象，对应了普通函数。</text><text id="kity_text_173" text-rendering="inherit" font-size="12" dy=".8em" y="1292.5" x="878.5">strict：当严格模式时使用，this 严格按照调用时传入的值，可能为 null 或者 undefined。</text></g></g><g id="minder_node36"><g id="node_expander31" display="none" style="cursor: pointer;"><path id="kity_path_322" fill="white" stroke="gray" d="M868.5,1350.5A6,6,0,1,1,856.5,1350.5A6,6,0,1,1,868.5,1350.5"></path><path id="kity_path_323" fill="none" stroke="gray"></path></g><path id="node_outline32" fill="none" stroke="none" d="M873.5,1339.5h268a5,5,0,0,1,5,5v12a5,5,0,0,1,-5,5h-268a5,5,0,0,1,-5,-5v-12a5,5,0,0,1,5,-5z"></path><g id="node_text32" fill="black"><text id="kity_text_175" text-rendering="inherit" font-size="12" dy=".8em" y="1344.5" x="878.5">class 中的函数 设计成了默认按 strict 模式执行。</text></g></g><g id="minder_node37"><g id="node_expander33" display="none" style="cursor: pointer;"><path id="kity_path_328" fill="white" stroke="gray" d="M577.5,1402.5A6,6,0,1,1,565.5,1402.5A6,6,0,1,1,577.5,1402.5"></path><path id="kity_path_329" fill="none" stroke="gray"></path></g><path id="node_outline34" fill="none" stroke="none" d="M582.5,1391.5h743a5,5,0,0,1,5,5v12a5,5,0,0,1,-5,5h-743a5,5,0,0,1,-5,-5v-12a5,5,0,0,1,5,-5z"></path><g id="node_text34" fill="black"><text id="kity_text_179" text-rendering="inherit" font-size="12" dy=".8em" y="1396.5" x="587.5">call、bind 和 apply 用于不接受 this 的函数类型如箭头、class 都不会报错。这时候，它们无法实现改变 this 的能力，但是可以实现传参。</text></g></g><g id="minder_node38"><g id="node_expander36" display="none" style="cursor: pointer;"><path id="kity_path_337" fill="white" stroke="gray" d="M391.5,1454.5A6,6,0,1,1,379.5,1454.5A6,6,0,1,1,391.5,1454.5"></path><path id="kity_path_338" fill="none" stroke="gray"></path></g><path id="node_outline37" fill="none" stroke="none" d="M396.5,1443.5h46a5,5,0,0,1,5,5v12a5,5,0,0,1,-5,5h-46a5,5,0,0,1,-5,-5v-12a5,5,0,0,1,5,-5z"></path><g id="node_text37" fill="black"><text id="kity_text_185" text-rendering="inherit" font-size="12" dy=".8em" y="1448.5" x="401.5">上下文</text></g></g><g id="minder_node39"><g id="node_expander37" display="none" style="cursor: pointer;"><path id="kity_path_340" fill="white" stroke="gray" d="M391.5,1506.5A6,6,0,1,1,379.5,1506.5A6,6,0,1,1,391.5,1506.5"></path><path id="kity_path_341" fill="none" stroke="gray"></path></g><path id="node_outline38" fill="none" stroke="none" d="M396.5,1495.5h82a5,5,0,0,1,5,5v12a5,5,0,0,1,-5,5h-82a5,5,0,0,1,-5,-5v-12a5,5,0,0,1,5,-5z"></path><g id="node_text38" fill="black"><text id="kity_text_187" text-rendering="inherit" font-size="12" dy=".8em" y="1500.5" x="401.5">原型与原型链</text></g></g><g id="minder_node40"><g id="node_expander38" display="none" style="cursor: pointer;"><path id="kity_path_343" fill="white" stroke="gray" d="M391.5,1558.5A6,6,0,1,1,379.5,1558.5A6,6,0,1,1,391.5,1558.5"></path><path id="kity_path_344" fill="none" stroke="gray"></path></g><path id="node_outline39" fill="none" stroke="none" d="M396.5,1547.5h46a5,5,0,0,1,5,5v12a5,5,0,0,1,-5,5h-46a5,5,0,0,1,-5,-5v-12a5,5,0,0,1,5,-5z"></path><g id="node_text39" fill="black"><text id="kity_text_189" text-rendering="inherit" font-size="12" dy=".8em" y="1552.5" x="401.5">优先级</text></g></g></g></g></svg>